<svg width="24" height="24" viewBox="0 0 24 24" fill="none" xmlns="http://www.w3.org/2000/svg">
  <path fill-rule="evenodd" clip-rule="evenodd" d="M12 3C10.3431 3 9 4.34315 9 6V12C9 13.6569 10.3431 15 12 15C13.6569 15 15 13.6569 15 12V6C15 4.34315 13.6569 3 12 3ZM7.5 6C7.5 3.51472 9.51472 1.5 12 1.5C14.4853 1.5 16.5 3.51472 16.5 6V12C16.5 14.4853 14.4853 16.5 12 16.5C9.51472 16.5 7.5 14.4853 7.5 12V6Z" fill="currentColor"/>
  <path fill-rule="evenodd" clip-rule="evenodd" d="M12 18C12.4142 18 12.75 18.3358 12.75 18.75V21.75C12.75 22.1642 12.4142 22.5 12 22.5C11.5858 22.5 11.25 22.1642 11.25 21.75V18.75C11.25 18.3358 11.5858 18 12 18Z" fill="currentColor"/>
  <path fill-rule="evenodd" clip-rule="evenodd" d="M5.19931 12.0052C5.61065 11.9565 5.98359 12.2505 6.03229 12.6618C6.20528 14.1231 6.90838 15.47 8.00831 16.4474C9.10824 17.4248 10.5285 17.9647 12 17.9647C13.4714 17.9647 14.8917 17.4248 15.9917 16.4474C17.0916 15.47 17.7947 14.1231 17.9677 12.6618C18.0164 12.2505 18.3893 11.9565 18.8007 12.0052C19.212 12.0539 19.506 12.4268 19.4573 12.8382C19.2411 14.6642 18.3625 16.3474 16.988 17.5687C15.6135 18.7901 13.8387 19.4647 12 19.4647C10.1613 19.4647 8.38643 18.7901 7.01194 17.5687C5.63746 16.3474 4.75886 14.6641 4.54269 12.8382C4.49399 12.4268 4.78797 12.0539 5.19931 12.0052Z" fill="currentColor"/>
</svg>
